<svg height="512pt" viewBox="-5 0 512 512.003" width="512pt" xmlns="http://www.w3.org/2000/svg"><path d="m199.84375 502v-23.734375c0-15.238281-12.347656-27.585937-27.582031-27.585937h-42.761719c-35.320312 0-63.953125-28.632813-63.953125-63.953126v-51.5625h-55.542969l35.050782-115.597656c0-101.476562 81.441406-183.933594 182.535156-185.566406h179.675781v466.34375" fill="#dff6fc"/><path d="m467.570312 197.902344c-3.367187-15.667969-9.53125-30.292969-17.957031-43.328125l16.933594-16.933594-39.082031-39.050781-16.917969 16.914062c-13.035156-8.421875-27.664063-14.589844-43.332031-17.953125v-23.925781h-55.25v23.925781c-15.671875 3.363281-30.296875 9.527344-43.332032 17.953125l-16.917968-16.917968-39.082032 39.054687 16.929688 16.929687c-8.421875 13.035157-14.585938 27.664063-17.953125 43.332032h-23.992187l-.027344 55.25h24.015625c3.367187 15.671875 9.53125 30.296875 17.957031 43.332031l-16.996094 16.996094 39.054688 39.082031 17.007812-17.007812c13.035156 8.425781 27.664063 14.589843 43.335938 17.957031v24.082031h55.25v-24.082031c15.667968-3.367188 30.296875-9.53125 43.332031-17.957031l17.007813 17.007812 39.054687-39.082031-16.996094-16.996094c8.425781-13.035156 14.589844-27.660156 17.957031-43.332031h24.019532v-55.25zm0 0" fill="#9bc6ff"/><path d="m407.589844 225.609375c0 37.554687-30.445313 68-68 68-37.554688 0-68-30.445313-68-68s30.445312-68 68-68c37.554687 0 68 30.445313 68 68zm0 0" fill="#fff"/><path d="m491.484375 34c0 13.253906-10.746094 24-24 24s-24-10.746094-24-24 10.746094-24 24-24 24 10.746094 24 24zm0 0" fill="#ffcb7c"/><path d="m431.589844 478c0 13.253906-10.746094 24-24 24s-24-10.746094-24-24 10.746094-24 24-24 24 10.746094 24 24zm0 0" fill="#d8ec84"/><path d="m293.589844 430c0 13.253906-10.746094 24-24 24s-24-10.746094-24-24 10.746094-24 24-24 24 10.746094 24 24zm0 0" fill="#f5737f"/><path d="m272.585938 44h162.398437c4.28125 13.882812 17.230469 24 32.5 24 18.746094 0 34-15.253906 34-34s-15.253906-34-34-34c-15.269531 0-28.21875 10.117188-32.5 24h-162.398437c-5.523438 0-10 4.476562-10 10s4.476562 10 10 10zm194.898437-24c7.71875 0 14 6.28125 14 14s-6.28125 14-14 14c-6.714844 0-12.339844-4.757812-13.6875-11.074219.28125-.925781.4375-1.90625.4375-2.925781s-.15625-2-.4375-2.925781c1.347656-6.316407 6.96875-11.074219 13.6875-11.074219zm0 0"/><path d="m172.257812 440.679688h-42.757812c-29.75 0-53.957031-24.203126-53.957031-53.953126v-51.5625c0-5.519531-4.476563-10-10-10h-42.058594l31.136719-102.695312c.285156-.941406.429687-1.917969.429687-2.902344 0-79.40625 53.507813-149.167968 130.117188-169.644531 5.335937-1.429687 8.503906-6.910156 7.078125-12.246094-1.425782-5.335937-6.910156-8.5-12.242188-7.078125-84.859375 22.683594-144.273437 99.644532-144.945312 187.46875l-34.625 114.199219c-.921875 3.027344-.3515628 6.3125 1.535156 8.855469 1.886719 2.542968 4.867188 4.042968 8.03125 4.042968h45.542969v41.5625c0 40.777344 33.179687 73.953126 73.957031 73.953126h42.757812c9.699219 0 17.585938 7.886718 17.585938 17.585937v23.734375c0 5.523438 4.476562 10 10 10s10-4.476562 10-10v-23.734375c0-20.726563-16.859375-37.585937-37.585938-37.585937zm0 0"/><path d="m491.589844 187.902344h-16.179688c-3.066406-11.117188-7.480468-21.765625-13.179687-31.804688l11.386719-11.386718c1.875-1.875 2.929687-4.417969 2.929687-7.070313s-1.054687-5.199219-2.933594-7.074219l-39.082031-39.050781c-3.90625-3.90625-10.234375-3.902344-14.140625 0l-11.371094 11.375c-10.039062-5.703125-20.6875-10.113281-31.804687-13.183594v-16.082031c0-5.523438-4.476563-10-10-10h-55.25c-5.523438 0-10 4.476562-10 10v16.085938c-11.117188 3.066406-21.765625 7.476562-31.808594 13.179687l-11.371094-11.375c-3.902344-3.902344-10.234375-3.902344-14.140625 0l-39.082031 39.054687c-1.875 1.875-2.929688 4.417969-2.929688 7.070313s1.050782 5.195313 2.925782 7.074219l11.386718 11.382812c-5.699218 10.042969-10.113281 20.6875-13.179687 31.804688h-16.148437c-5.519532 0-9.996094 4.476562-10 9.996094l-.027344 55.25c-.003906 2.652343 1.050781 5.199218 2.925781 7.074218 1.875 1.878906 4.417969 2.933594 7.074219 2.933594h16.175781c3.066406 11.117188 7.480469 21.765625 13.179687 31.804688l-11.449218 11.449218c-3.90625 3.90625-3.90625 10.234375-.003906 14.140625l39.054687 39.085938c1.875 1.875 4.417969 2.929687 7.070313 2.929687h.003906c2.652344 0 5.195312-1.054687 7.070312-2.929687l.898438-.894531v38.761718c-13.882813 4.28125-24 17.230469-24 32.5 0 18.746094 15.25 34 34 34 18.746094 0 34-15.253906 34-34 0-15.269531-10.121094-28.21875-24-32.5v-44.457031c7.203125 3.398437 14.671875 6.183594 22.375 8.308594v16.242187c0 5.519532 4.476562 10 10 10h55.25c5.523437 0 10-4.480468 10-10v-16.242187c6.988281-1.929688 13.789062-4.390625 20.375-7.367188v91.519531c-13.882813 4.277344-24 17.226563-24 32.496094 0 18.746094 15.25 34 34 34 18.746094 0 34-15.253906 34-34 0-15.269531-10.117188-28.21875-24-32.496094v-88.769531l2.894531 2.898438c1.875 1.875 4.421875 2.929687 7.074219 2.929687 2.652344-.003906 5.195312-1.054687 7.070312-2.933594l39.054688-39.082031c3.902344-3.90625 3.902344-10.234375-.003906-14.140625l-11.449219-11.449218c5.699219-10.042969 10.113281-20.691407 13.179687-31.808594h16.179688c5.519531 0 10-4.476563 10-10v-55.25c0-5.519532-4.476563-10-10-10zm-222 256.097656c-7.71875 0-14-6.28125-14-14s6.28125-14 14-14 14 6.28125 14 14-6.28125 14-14 14zm138 48c-7.71875 0-14-6.28125-14-14s6.28125-14 14-14 14 6.28125 14 14-6.28125 14-14 14zm74-248.847656h-14.019532c-4.710937 0-8.785156 3.292968-9.777343 7.902344-3.0625 14.265624-8.640625 27.726562-16.578125 40.003906-2.558594 3.960937-2.003906 9.167968 1.328125 12.5l9.929687 9.925781-24.917968 24.9375-9.9375-9.9375c-3.332032-3.332031-8.539063-3.886719-12.5-1.328125-12.277344 7.9375-25.738282 13.515625-40.003907 16.578125-4.605469.988281-7.898437 5.0625-7.898437 9.777344v14.082031h-35.25v-14.082031c0-4.714844-3.292969-8.789063-7.898438-9.777344-14.269531-3.0625-27.726562-8.640625-40.007812-16.578125-3.957032-2.558594-9.164063-2.003906-12.496094 1.328125l-9.9375 9.9375-24.917969-24.9375 9.929688-9.925781c3.332031-3.332032 3.882812-8.539063 1.328125-12.5-7.9375-12.277344-13.515625-25.738282-16.578125-40.003906-.992188-4.609376-5.0625-7.902344-9.777344-7.902344h-14.011719l.019532-35.25h13.992187c4.714844 0 8.789063-3.289063 9.777344-7.898438 3.066406-14.265625 8.644531-27.726562 16.578125-40.003906 2.558594-3.960938 2.003906-9.164062-1.328125-12.5l-9.855469-9.855469 24.933594-24.917969 9.847656 9.851563c3.335938 3.328125 8.542969 3.886719 12.5 1.324219 12.277344-7.933594 25.738281-13.511719 40.003906-16.574219 4.609375-.988281 7.898438-5.0625 7.898438-9.777344v-13.925781h35.253906v13.925781c0 4.714844 3.289062 8.785157 7.898438 9.777344 14.265624 3.0625 27.726562 8.640625 40.003906 16.574219 3.957031 2.558594 9.164062 2.003906 12.496094-1.328125l9.851562-9.847657 24.933594 24.917969-9.859375 9.855469c-3.332031 3.332031-3.882813 8.539062-1.324219 12.5 7.933594 12.277344 13.511719 25.738281 16.574219 40.003906.992187 4.605469 5.066406 7.898438 9.777343 7.898438h14.023438v35.25zm0 0"/><path d="m339.589844 147.609375c-43.007813 0-78 34.988281-78 78 0 43.007813 34.992187 78 78 78 43.007812 0 78-34.992187 78-78 0-43.011719-34.992188-78-78-78zm0 136c-31.980469 0-58-26.019531-58-58s26.019531-58 58-58c31.980468 0 58 26.019531 58 58s-26.019532 58-58 58zm0 0"/><path d="m358.589844 235.609375h-38c-5.523438 0-10 4.476563-10 10 0 5.519531 4.476562 10 10 10h38c5.523437 0 10-4.480469 10-10 0-5.523437-4.476563-10-10-10zm0 0"/><path d="m358.589844 195.609375h-38c-5.523438 0-10 4.476563-10 10 0 5.519531 4.476562 10 10 10h38c5.523437 0 10-4.480469 10-10 0-5.523437-4.476563-10-10-10zm0 0"/><path d="m106.1875 212.5c-1.863281 1.859375-2.929688 4.4375-2.929688 7.070312 0 2.628907 1.066407 5.199219 2.929688 7.070313 1.859375 1.859375 4.4375 2.929687 7.070312 2.929687 2.628907 0 5.207032-1.070312 7.066407-2.929687 1.863281-1.871094 2.933593-4.441406 2.933593-7.070313 0-2.632812-1.070312-5.210937-2.933593-7.070312-1.859375-1.859375-4.4375-2.929688-7.066407-2.929688-2.632812 0-5.210937 1.070313-7.070312 2.929688zm0 0"/><path d="m227.585938 44c2.628906 0 5.210937-1.070312 7.070312-2.929688 1.859375-1.859374 2.929688-4.441406 2.929688-7.070312s-1.070313-5.210938-2.929688-7.070312c-1.859375-1.859376-4.441406-2.929688-7.070312-2.929688-2.628907 0-5.210938 1.070312-7.070313 2.929688-1.859375 1.859374-2.929687 4.441406-2.929687 7.070312s1.070312 5.210938 2.929687 7.070312c1.859375 1.859376 4.441406 2.929688 7.070313 2.929688zm0 0"/></svg>