<svg height="512pt" viewBox="0 0 512 512.11209" width="512pt" xmlns="http://www.w3.org/2000/svg"><path d="m367.027344 162.246094c0 9.425781-7.640625 17.066406-17.066406 17.066406-9.425782 0-17.066407-7.640625-17.066407-17.066406 0-9.425782 7.640625-17.066406 17.066407-17.066406 9.425781 0 17.066406 7.640624 17.066406 17.066406zm0 0" fill="#fec108"/><path d="m409.695312 145.179688c0 9.425781-7.640624 17.066406-17.066406 17.066406-9.425781 0-17.066406-7.640625-17.066406-17.066406 0-9.425782 7.640625-17.066407 17.066406-17.066407 9.425782 0 17.066406 7.640625 17.066406 17.066407zm0 0" fill="#fec108"/><path d="m153.695312 102.511719c0 23.566406-19.105468 42.667969-42.667968 42.667969s-42.667969-19.101563-42.667969-42.667969c0-23.5625 19.105469-42.667969 42.667969-42.667969s42.667968 19.105469 42.667968 42.667969zm0 0" fill="#fdd834"/><path d="m128.09375 102.511719c0-23.5625-13.371094-42.667969-29.867188-42.667969-16.496093 0-29.867187 19.105469-29.867187 42.667969 0 23.566406 13.371094 42.667969 29.867187 42.667969 16.496094 0 29.867188-19.101563 29.867188-42.667969zm0 0" fill="#ffeb3a"/><path d="m494.429688 317.296875c-16.808594 43.09375-72.617188 108.289063-196.179688 122.878906l.082031-7.421875.429688-57.175781v-1.28125c12.457031-.511719 24.488281-1.277344 36.007812-2.386719 21.058594-1.96875 41.976563-5.21875 62.636719-9.730468 12.457031-2.730469 23.894531-5.714844 34.21875-8.957032 34.730469-10.925781 57.003906-24.152344 62.804688-35.925781zm0 0" fill="#6a1b9a"/><path d="m431.625 353.222656c-24.0625 30.976563-66.132812 63.402344-133.292969 79.53125l.429688-57.175781v-1.28125c12.457031-.511719 24.488281-1.277344 36.007812-2.386719 21.058594-1.96875 41.976563-5.21875 62.636719-9.730468 12.457031-2.730469 23.894531-5.714844 34.21875-8.957032zm0 0" fill="#9d27b0"/><path d="m264.542969 374.8125-.425781 67.921875-8.023438.257813c-154.792969-3.15625-221.097656-79.445313-238.933594-127.148438 4.351563 11.691406 25.941406 25.175781 60.160156 36.355469 12.417969 4 25.039063 7.363281 37.804688 10.066406 22.070312 4.734375 44.414062 8.097656 66.898438 10.070313 11.265624 1.023437 22.957031 1.707031 34.988281 2.132812h.085937c12.628906.425781 25.597656.597656 38.996094.257812 2.816406.085938 5.632812.085938 8.449219.085938zm0 0" fill="#9d27b0"/><path d="m401.160156 345.710938c.035156 5.707031-1.25 11.34375-3.753906 16.46875-20.660156 4.511718-41.578125 7.761718-62.636719 9.730468-6.710937-7.066406-10.441406-16.449218-10.410156-26.199218 0-21.207032 17.195313-38.398438 38.402344-38.398438s38.398437 17.191406 38.398437 38.398438zm0 0" fill="#ffe0b2"/><path d="m217.4375 362.949219-.339844 11.519531h-.085937c-12.03125-.425781-23.722657-1.109375-34.988281-2.132812l-26.792969-37.035157c-1.480469-2.046875-3.789063-3.335937-6.308594-3.519531-2.519531-.179688-4.992187.765625-6.746094 2.582031l-27.050781 27.902344c-12.765625-2.703125-25.386719-6.066406-37.804688-10.066406l47.445313-48.898438c7.011719-7.261719 16.878906-11.039062 26.949219-10.3125 10.066406.722657 19.292968 5.878907 25.191406 14.066407zm0 0" fill="#bfa885"/><path d="m298.761719 367.046875v8.53125l-.511719 64.597656.253906 20.480469c.140625 9.425781-7.382812 17.179688-16.808594 17.324219-9.425781.140625-17.183593-7.386719-17.324218-16.8125l-.253906-18.433594.425781-67.921875c-2.816407 0-5.632813 0-8.449219-.085938-13.398438.339844-26.367188.167969-38.996094-.257812l.339844-11.519531 42.410156-22.015625c16.898438-8.789063 38.914063.511718 38.914063 26.113281zm0 0" fill="#ffe0b2"/><path d="m503.5625 512.113281h-494.933594c-4.714844 0-8.535156-3.820312-8.535156-8.535156 0-4.710937 3.820312-8.53125 8.535156-8.53125h494.933594c4.710938 0 8.53125 3.820313 8.53125 8.53125 0 4.714844-3.820312 8.535156-8.53125 8.535156zm0 0" fill="#f3d55b"/><path d="m503.5625 495.046875h-32.429688l23.246094-125.527344c0-.058593.050782-.101562.066406-.160156l5.453126-29.613281 12.035156-64.980469c.730468-4.574219-2.320313-8.898437-6.875-9.738281-4.554688-.84375-8.949219 2.097656-9.902344 6.632812l-7.554688 40.738282-.167968.28125c-.246094.269531-.472656.554687-.683594.851562-3.371094 6.828125-16.597656 16.164062-39.320312 25.089844-.167969-26.238282-4.488282-52.289063-12.800782-77.175782-9.714844-24.355468-21.695312-47.742187-35.789062-69.855468-4.820313-7.816406-8.976563-14.566406-12.484375-21.664063 12.007812 3.054688 24.480469-2.925781 29.613281-14.203125s1.453125-24.609375-8.734375-31.660156c-10.1875-7.046875-23.964844-5.789062-32.707031 2.992188-.742188-6.246094-1.304688-13.234376-1.707032-21.144532 75.554688-14.566406 106.769532 70.988282 108.101563 74.742188 1.203125 3.410156 4.429687 5.691406 8.046875 5.691406.964844 0 1.921875-.164062 2.832031-.488281 4.433594-1.5625 6.765625-6.421875 5.214844-10.859375-.28125-1.015625-33.664063-92.964844-113.878906-87.570313 8.753906-10.726562 21.222656-17.769531 34.929687-19.730469 35.632813-3.976562 70.441406 31.8125 70.824219 32.171876 3.253906 3.410156 8.65625 3.542968 12.066406.289062 3.414063-3.25 3.542969-8.652344.289063-12.066406-1.644532-1.707032-40.898438-42.171875-84.949219-37.359375-13.929687 1.667969-27.003906 7.617187-37.417969 17.023437 8.457032-23.8125 27.148438-42.574218 50.929688-51.121094 2.964844-.984374 5.15625-3.511718 5.710937-6.585937.550781-3.074219-.617187-6.207031-3.054687-8.164063-2.4375-1.9570308-5.746094-2.429687-8.632813-1.222656-28.265625 10.1875-50.511719 32.460938-60.671875 60.738282-14.800781-34.90625-47.914062-58.578126-85.734375-61.285157-4.652343.011719-8.480469 3.675781-8.695312 8.328125-.054688 2.265625.792969 4.457032 2.359375 6.097656 1.5625 1.636719 3.714844 2.589844 5.980468 2.640626 30 2.132812 56.421876 20.523437 68.84375 47.914062-50.132812-42.359375-109.847656-14.925781-110.546874-14.59375-4.257813 2.023438-6.070313 7.113281-4.050782 11.371094 2.023438 4.257812 7.113282 6.070312 11.371094 4.050781 2.269531-1.085937 46.082031-21.179687 86.246094 7.515625-15.21875-4.613281-31.535156-4.101562-46.4375 1.460938-40.796875 16.078124-53.921875 67.984374-54.460938 70.1875-.535156 2.199218-.179687 4.519531.996094 6.453124 1.175781 1.9375 3.070312 3.324219 5.269531 3.863282.667969.160156 1.351563.246094 2.039063.246094 3.929687-.003907 7.34375-2.691407 8.277344-6.511719.109374-.449219 11.46875-45.488281 44.132812-58.367188 15.234375-5.972656 33.144531-3.96875 53.359375 5.777344-29.074219 11.09375-79.410156 42.128906-90.546875 125.925781-.476562 3.058594.738281 6.132813 3.175781 8.039063s5.714844 2.339843 8.566407 1.140625c2.851562-1.199219 4.832031-3.851563 5.171874-6.925782 11.347657-85.417968 65.585938-109.003906 87.492188-115.097656.496094 9.625 1.503906 19.21875 3.019531 28.742188-12.453125-4.753906-26.464843.847656-32.21875 12.867187-5.75 12.023438-1.316406 26.449219 10.195313 33.164063 11.515625 6.714844 26.253906 3.472656 33.886718-7.453125 3.898438 7.996093 8.429688 15.359375 13.507813 23.609375 13.582031 21.296875 25.128906 43.828125 34.492187 67.285156 6.433594 15.882812 10.359376 41.753906 11.75 76.714844-6.503906 2.074218-13.578124 4.089844-21.171874 5.976562.167968-1.601562.257812-3.210937.265624-4.824218 0-25.917969-21.015624-46.933594-46.933593-46.933594-25.921875 0-46.933594 21.015625-46.933594 46.933594.03125 6.503906 1.425781 12.929687 4.09375 18.859374-4.113281.289063-8.328125.5625-12.722656.792969.183593-12.625-6.136719-24.457031-16.734375-31.324219-10.617188-6.210937-23.695313-6.46875-34.550782-.683593l-35.839843 18.628906-36.207031-49.929687c-7.378907-10.230469-18.914063-16.664063-31.496094-17.570313-12.582032-.910156-24.917969 3.804687-33.691406 12.871094l-43.679688 44.941406c-30.644531-10.640625-47.179688-22.3125-49.84375-29.464844-.207031-.398437-.445312-.777343-.707031-1.140625l-7.433594-40.109375c-.488281-3.058593-2.597656-5.609375-5.511719-6.667969-2.910156-1.058593-6.167968-.457031-8.507812 1.574219s-3.394532 5.167969-2.757813 8.199219l40.816407 220.359375h-32.425782c-4.714844 0-8.535156 3.820313-8.535156 8.53125 0 4.714844 3.820312 8.535156 8.535156 8.535156h494.933594c4.710938 0 8.53125-3.820312 8.53125-8.535156 0-4.710937-3.820312-8.53125-8.53125-8.53125zm-110.933594-358.402344c4.710938 0 8.53125 3.820313 8.53125 8.535157 0 4.710937-3.820312 8.53125-8.53125 8.53125-4.714844 0-8.535156-3.820313-8.535156-8.53125 0-4.714844 3.820312-8.535157 8.535156-8.535157zm-42.667968 34.132813c-4.714844 0-8.535157-3.820313-8.535157-8.53125 0-4.714844 3.820313-8.535156 8.535157-8.535156 4.710937 0 8.53125 3.820312 8.53125 8.535156 0 4.710937-3.820313 8.53125-8.53125 8.53125zm-42.71875 211.671875c10.121093-.523438 19.480468-1.195313 28.355468-2.050781 21.390625-2 42.636719-5.300782 63.625-9.878907 22.929688-4.648437 45.289063-11.769531 66.679688-21.242187-28.414063 35.976562-80.109375 69.589844-159.042969 81.015625zm140.851562 8.617187c11.25-8.953125 21.488281-19.105468 30.539062-30.277344l-24.839843 134.257813h-9.675781c.28125-7.160156.691406-15.4375 1.144531-24.679687 1.125-22.691407 2.5-50.6875 2.832031-79.300782zm-85.332031-75.222656c16.492187 0 29.867187 13.375 29.867187 29.867188-.042968 3.089843-.582031 6.148437-1.597656 9.0625-17.355469 3.621093-34.886719 6.335937-52.523438 8.132812-3.636718-4.996094-5.601562-11.015625-5.613281-17.195312 0-16.492188 13.371094-29.867188 29.867188-29.867188zm-98.988281 32.660156c5.5625-3.050781 12.304687-3.003906 17.828124.117188 5.957032 4.160156 9.246094 11.183594 8.625 18.425781l-.511718 73.238281.257812 20.523438c.042969 2.246094-.8125 4.417968-2.382812 6.027344-1.589844 1.640624-3.765625 2.578124-6.050782 2.609374h-.152343c-4.640625-.027343-8.40625-3.757812-8.480469-8.398437l-.257812-18.257813.425781-67.917968v-.058594c-.050781-.550781-.160157-1.089844-.324219-1.613281-.054688-.582031-.167969-1.152344-.339844-1.707031-.253906-.480469-.554687-.929688-.898437-1.347657-.257813-.484375-.566407-.941406-.917969-1.367187-.398438-.320313-.824219-.605469-1.273438-.851563-.441406-.375-.921874-.699219-1.433593-.972656-.511719-.15625-1.039063-.265625-1.570313-.324219-.554687-.179687-1.125-.300781-1.707031-.359375h-.066406c-2.644531.066407-5.453125 0-8.644531-.085937-8.757813.203125-17.503907.179687-26.242188 0zm-132.878907-39.253906c5.257813-5.445312 12.660157-8.273438 20.210938-7.726562 7.550781.546874 14.46875 4.414062 18.886719 10.558593l38.785156 53.488281c-7.441406-.359374-14.839844-.855468-22.1875-1.433593l-24.363282-33.785157c-2.941406-4.125-7.566406-6.726562-12.617187-7.105468-5.054687-.375-10.011719 1.511718-13.535156 5.152344l-23.765625 24.507812c-6.582032-1.484375-12.964844-3.097656-19.109375-4.820312zm32.972657 52.566406c-10.882813-1.332031-21.488282-2.9375-31.738282-4.824218l16.214844-16.671876zm-89.199219-1.511718c12.6875 4.085937 25.574219 7.523437 38.613281 10.289062 22.417969 4.808594 45.117188 8.230469 67.957031 10.242188 19.457031 1.707031 39.339844 2.558593 59.070313 2.558593 5.179687 0 10.347656-.058593 15.496094-.179687h.128906l-.324219 51.203125c-107.523437-2.347657-175.335937-42.113281-209.53125-85.265625 9.300781 4.28125 18.847656 8.003906 28.589844 11.152344zm-41.226563 0c30.558594 38.621093 94.550782 88.421874 222.261719 91.222656l.136719 9.820312c.125 6.769532 2.925781 13.210938 7.789062 17.917969 4.738282 4.648437 11.113282 7.246094 17.75 7.238281h.46875c6.796875-.109375 13.269532-2.914062 17.996094-7.800781 4.734375-4.84375 7.324219-11.386719 7.195312-18.15625l-.164062-13.023437c44.085938-5.242188 86.4375-20.277344 123.957031-44.007813-.539062 23.84375-1.707031 46.832031-2.613281 66-.476562 9.582031-.851562 18.164063-1.183594 25.519531h-368.640625zm0 0"/><path d="m111.027344 153.710938c28.277344 0 51.199218-22.921876 51.199218-51.199219 0-28.277344-22.921874-51.199219-51.199218-51.199219s-51.199219 22.921875-51.199219 51.199219c.027344 28.265625 22.933594 51.171875 51.199219 51.199219zm0-85.332032c18.851562 0 34.132812 15.28125 34.132812 34.132813 0 18.851562-15.28125 34.132812-34.132812 34.132812-18.851563 0-34.132813-15.28125-34.132813-34.132812 0-18.851563 15.28125-34.132813 34.132813-34.132813zm0 0"/><path d="m102.492188 179.3125v17.066406c0 4.710938 3.820312 8.53125 8.535156 8.53125 4.710937 0 8.535156-3.820312 8.535156-8.53125v-17.066406c0-4.714844-3.824219-8.535156-8.535156-8.535156-4.714844 0-8.535156 3.820312-8.535156 8.535156zm0 0"/><path d="m111.027344 34.246094c4.710937 0 8.535156-3.820313 8.535156-8.535156v-17.066407c0-4.710937-3.824219-8.53125-8.535156-8.53125-4.714844 0-8.535156 3.820313-8.535156 8.53125v17.066407c0 4.714843 3.820312 8.535156 8.535156 8.535156zm0 0"/><path d="m17.160156 111.046875h17.066406c4.714844 0 8.535157-3.820313 8.535157-8.535156 0-4.710938-3.820313-8.53125-8.535157-8.53125h-17.066406c-4.710937 0-8.53125 3.820312-8.53125 8.53125 0 4.714843 3.820313 8.535156 8.53125 8.535156zm0 0"/><path d="m179.292969 102.511719c0 4.714843 3.820312 8.535156 8.535156 8.535156h17.066406c4.710938 0 8.53125-3.820313 8.53125-8.535156 0-4.710938-3.820312-8.53125-8.53125-8.53125h-17.066406c-4.714844 0-8.535156 3.820312-8.535156 8.53125zm0 0"/><path d="m50.6875 150.785156-12.066406 12.066406c-2.21875 2.140626-3.105469 5.316407-2.328125 8.296876.78125 2.984374 3.113281 5.316406 6.097656 6.097656 2.980469.777344 6.15625-.109375 8.296875-2.328125l12.066406-12.066407c3.234375-3.347656 3.1875-8.671874-.105468-11.960937-3.289063-3.292969-8.613282-3.339844-11.960938-.105469zm0 0"/><path d="m165.332031 56.738281c2.265625 0 4.433594-.898437 6.035157-2.5l12.066406-12.066406c3.234375-3.347656 3.1875-8.667969-.105469-11.960937-3.292969-3.292969-8.613281-3.339844-11.960937-.105469l-12.066407 12.066406c-2.441406 2.441406-3.171875 6.109375-1.847656 9.300781 1.320313 3.1875 4.429687 5.265625 7.878906 5.265625zm0 0"/><path d="m50.6875 54.238281c3.347656 3.234375 8.671875 3.1875 11.960938-.101562 3.292968-3.292969 3.339843-8.617188.105468-11.964844l-12.066406-12.066406c-3.347656-3.234375-8.671875-3.1875-11.960938.105469-3.292968 3.292968-3.339843 8.613281-.105468 11.960937zm0 0"/><path d="m159.300781 150.785156c-3.332031 3.332032-3.332031 8.734375 0 12.066406l12.066407 12.066407c3.347656 3.234375 8.667968 3.1875 11.960937-.105469 3.292969-3.289062 3.339844-8.613281.105469-11.960938l-12.066406-12.066406c-3.332032-3.332031-8.734376-3.332031-12.066407 0zm0 0"/></svg>