<svg height="512pt" viewBox="0 0 512.00004 512" width="512pt" xmlns="http://www.w3.org/2000/svg"><g fill-rule="evenodd"><path d="m70.003906 472c0-16.570312-13.433594-30-30-30-16.5 0-30 13.5-30 30s13.5 30 30 30c16.566406 0 30-13.433594 30-30zm0 0" fill="#b5bbc9"/><path d="m40.003906 442c16.566406 0 30 13.429688 30 30 0 16.566406-13.433594 30-30 30h144c-16.570312 0-30-13.433594-30-30 0-16.570312 13.429688-30 30-30zm0 0" fill="#858fa6"/><path d="m214 472c0 16.566406-13.429688 30-30 30-16.566406 0-30-13.433594-30-30 0-16.570312 13.433594-30 30-30 16.570312 0 30 13.429688 30 30zm0 0" fill="#b5bbc9"/><path d="m184 442c16.570312 0 30 13.429688 30 30 0 16.566406-13.429688 30-30 30h144c-16.566406 0-30-13.433594-30-30 0-16.570312 13.433594-30 30-30zm0 0" fill="#858fa6"/><path d="m358 472c0 16.566406-13.429688 30-30 30-16.566406 0-30-13.433594-30-30 0-16.570312 13.433594-30 30-30 16.570312 0 30 13.429688 30 30zm0 0" fill="#b5bbc9"/><path d="m328 442c16.570312 0 30 13.429688 30 30 0 16.566406-13.429688 30-30 30h144c-16.566406 0-30-13.433594-30-30 0-16.570312 13.429688-30 30-30zm0 0" fill="#858fa6"/><path d="m472 442c-16.566406 0-30 13.429688-30 30 0 16.566406 13.433594 30 30 30 16.5 0 30-13.5 30-30s-13.5-30-30-30zm0 0" fill="#b5bbc9"/><path d="m332 402h60.003906c12.144532 9.121094 19.996094 23.640625 19.996094 40h60v-60c0-33-27-60-60-60h-311.996094c-33 0-60 27-60 60v60h60c0-16.359375 7.851563-30.878906 19.996094-40h60.003906c12.144532 9.121094 19.996094 23.640625 19.996094 40h112c.003906-16.359375 7.855469-30.878906 20-40zm0 0" fill="#ff6977"/><path d="m218.417969 322h163.167969l-20-79c-2.835938-11.191406-13.199219-21-24.75-21h-176.835938c-33 0-60 27-60 60v40zm0 0" fill="#b0e7f7"/><path d="m76.503906 89.898438c-9.765625 9.765624-9.765625 25.59375 0 35.355468 3.976563 3.980469 8.96875 6.339844 14.140625 7.074219 3.1875.453125 6.445313.289063 9.582031-.488281 4.261719-1.058594 8.300782-3.253906 11.628907-6.585938 5.785156-5.78125 8.140625-13.691406 7.074219-21.210937-.734376-5.175781-3.089844-10.164063-7.074219-14.144531-6.664063-6.664063-16.15625-8.777344-24.617188-6.34375-3.929687 1.132812-7.636719 3.246093-10.734375 6.34375zm0 0" fill="#858fa6"/><path d="m111.859375 125.253906c-3.332031 3.332032-7.371094 5.527344-11.632813 6.582032l-7.941406 2.128906 33.714844 33.714844c7.777344 7.777343 20.507812 7.777343 28.285156 0 7.777344-7.777344 7.777344-20.503907 0-28.285157l-35.355468-35.351562c1.070312 7.519531-1.289063 15.429687-7.070313 21.210937zm0 0" fill="#ffc059"/><path d="m316.835938 91.75v50c0 11 9 20 20 20s20-9 20-20v-49.996094c-4.5625 6.070313-11.824219 9.996094-20 9.996094-8.175782 0-15.4375-3.925781-20-10zm0 0" fill="#ffc059"/><path d="m316.835938 91.753906c4.5625 6.070313 11.820312 9.996094 20 9.996094 8.175781 0 15.4375-3.925781 20-9.996094 3.140624-4.179687 5-9.375 5-15.003906 0-.039062 0-.078125 0-.121094-.066407-13.75-11.234376-24.878906-25-24.878906-13.765626 0-24.933594 11.128906-25 24.878906v.121094c0 5.628906 1.859374 10.824219 5 15.003906zm0 0" fill="#858fa6"/><path d="m10.003906 156.015625 82.28125-22.050781-1.640625-1.636719c-5.171875-.734375-10.160156-3.09375-14.140625-7.074219-9.765625-9.761718-9.765625-25.589844 0-35.355468 3.097656-3.097657 6.804688-5.210938 10.738282-6.34375l-77.238282 20.695312zm0 0" fill="#ffc059"/><path d="m311.835938 10v66.628906c.066406-13.75 11.234374-24.878906 25-24.878906 13.765624 0 24.933593 11.128906 25 24.878906v-66.628906zm0 0" fill="#ffc059"/></g><path d="m482 433.265625v-51.269531c0-38.597656-31.402344-69.996094-70-69.996094h-22.632812l-18.089844-71.453125c-4.121094-16.273437-18.925782-28.546875-34.441406-28.546875h-86.835938c-5.523438 0-10 4.476562-10 10v90h-130v-30c0-27.570312 22.429688-50 50-50 5.523438 0 10-4.476562 10-10s-4.476562-10-10-10c-38.597656 0-70 31.402344-70 70v30.710938c-33.875 4.867187-60 34.085937-60 69.285156v51.269531c-17.230469 4.449219-29.99609375 20.128906-29.99609375 38.734375 0 22.054688 17.94140575 39.996094 39.99609375 39.996094h314.996094c5.523437 0 10-4.476563 10-10 0-3.152344-1.464844-5.960938-3.742188-7.796875 4.257813-6.355469 6.746094-13.992188 6.746094-22.203125 0-7.28125-1.964844-14.109375-5.378906-19.996094h74.761718c-3.417968 5.886719-5.382812 12.714844-5.382812 20 0 8.207031 2.488281 15.84375 6.746094 22.199219-2.285156 1.832031-3.75 4.640625-3.75 7.796875 0 5.523437 4.476562 10 10 10h27.003906c22.054688 0 40-17.941406 40-40 0-18.601563-12.765625-34.28125-30-38.730469zm-222-201.265625h76.835938c6.3125 0 13.210937 6.160156 15.054687 13.453125l16.847656 66.546875h-108.738281zm-159.996094 100h312c27.570313 0 50 22.429688 50 49.996094v50.003906h-40.832031c-2.5-15.085938-10.628906-28.582031-23.15625-37.996094-1.734375-1.300781-3.839844-2.003906-6.007813-2.003906h-60.007812c-2.167969 0-4.273438.703125-6.007812 2.003906-12.527344 9.414063-20.65625 22.910156-23.15625 37.996094h-93.664063c-2.5-15.085938-10.628906-28.582031-23.160156-37.996094-1.730469-1.300781-3.839844-2.003906-6.003907-2.003906h-60.007812c-2.164062 0-4.273438.703125-6.003906 2.003906-12.53125 9.414063-20.65625 22.910156-23.160156 37.996094h-40.832032v-50.003906c0-27.570313 22.429688-49.996094 50-49.996094zm227.996094 99.996094c-.011719 0-.023438.003906-.039062.003906h-4.703126c1.964844-7.703125 6.1875-14.640625 12.28125-20h52.925782c6.09375 5.359375 10.3125 12.296875 12.277344 20h-72.703126c-.011718 0-.023437-.003906-.039062-.003906zm-143.960938.003906c-.011718 0-.023437-.003906-.039062-.003906-.011719 0-.023438.003906-.039062.003906h-72.703126c1.964844-7.703125 6.1875-14.640625 12.28125-20h52.925782c6.09375 5.359375 10.3125 12.296875 12.277344 20zm-34.65625 20c-3.414062 5.886719-5.378906 12.714844-5.378906 19.996094 0 7.285156 1.964844 14.113281 5.378906 20h-74.761718c3.414062-5.886719 5.382812-12.714844 5.382812-19.996094 0-7.285156-1.96875-14.113281-5.382812-20zm14.621094 19.996094c0-11.019532 8.960938-19.988282 19.980469-19.996094h.039063c11.019531.007812 19.980468 8.976562 19.980468 19.996094 0 11.027344-8.972656 20-20 20s-20-8.972656-20-20zm54.617188-19.996094h74.761718c-3.414062 5.886719-5.378906 12.714844-5.378906 19.996094 0 7.285156 1.964844 14.113281 5.378906 20h-74.761718c3.414062-5.886719 5.378906-12.714844 5.378906-20 0-7.28125-1.964844-14.109375-5.378906-19.996094zm-198.617188 19.996094c0-11.027344 8.972656-19.996094 20-19.996094s20 8.96875 20 20c0 11.023438-8.972656 19.996094-20 19.996094s-20-8.972656-20-20zm327.996094 0c0 11.027344-8.96875 20-20 20-11.027344 0-20-8.972656-20-20 0-11.019532 8.964844-19.988282 19.984375-19.996094h.035156c11.019531.007812 19.980469 8.976562 19.980469 19.996094zm124 20c-11.027344 0-20-8.972656-20-19.996094 0-11.03125 8.972656-20 20-20s20 8.96875 20 20c0 11.023438-8.972656 19.996094-20 19.996094zm0 0"/><path d="m306.835938 141.75c0 13.035156 8.359374 24.152344 20 28.277344v11.972656c0 5.523438 4.476562 10 10 10 5.523437 0 10-4.476562 10-10v-11.972656c11.636718-4.125 20-15.242188 20-28.277344v-46.996094c3.171874-5.261718 5-11.421875 5-18.003906 0-.007812 0-.015625 0-.019531v-66.730469c0-5.523438-4.476563-10-10-10-5.523438 0-10 4.476562-10 10v35.132812c-4.550782-2.167968-9.632813-3.382812-15-3.382812-5.367188 0-10.453126 1.214844-15 3.382812v-35.132812c0-5.523438-4.476563-10-10-10-5.523438 0-10 4.476562-10 10v66.75c0 6.582031 1.828124 12.742188 5 18.003906zm30 10c-5.515626 0-10-4.484375-10-10v-31.464844c3.171874.949219 6.527343 1.464844 10 1.464844 3.472656 0 6.828124-.515625 10-1.464844v31.464844c0 5.511719-4.488282 10-10 10zm0-90c8.269531 0 14.996093 6.722656 15 14.988281v.011719.003906c-.003907 8.269532-6.730469 14.996094-15 14.996094-8.269532 0-15-6.730469-15-15 0-8.273438 6.730468-15 15-15zm0 0"/><path d="m.34375 158.601562c1.195312 4.46875 5.234375 7.414063 9.652344 7.414063.855468 0 1.726562-.109375 2.59375-.34375l76.707031-20.554687 29.632813 29.632812c5.847656 5.847656 13.53125 8.773438 21.210937 8.773438 4.425781 0 8.851563-.976563 12.925781-2.917969l8.464844 8.464843c1.953125 1.949219 4.511719 2.925782 7.070312 2.925782 2.558594 0 5.117188-.976563 7.070313-2.925782 3.90625-3.90625 3.90625-10.238281 0-14.144531l-8.464844-8.464843c5.3125-11.148438 3.367188-24.921876-5.851562-34.136719l-33.199219-33.199219c-1.511719-6.117188-4.65625-11.730469-9.226562-16.300781-9.054688-9.054688-21.878907-12.09375-33.46875-9.128907-.113282.023438-.226563.042969-.339844.070313l-77.707032 20.824219c-5.332031 1.429687-8.5 6.914062-7.070312 12.25 1.199219 4.46875 5.238281 7.414062 9.652344 7.414062.855468 0 1.730468-.113281 2.597656-.34375l47.160156-12.636718c-.375 2.058593-.574218 4.164062-.574218 6.304687 0 8.402344 2.953124 16.347656 8.347656 22.667969l-60.113282 16.109375c-5.335937 1.429687-8.5 6.910156-7.070312 12.246093zm149.773438-5.0625c0 2.6875-1.03125 5.195313-2.902344 7.070313-1.875 1.871094-4.386719 2.90625-7.074219 2.90625s-5.195313-1.035156-7.070313-2.90625l-22.246093-22.25c2.910156-1.570313 5.648437-3.578125 8.105469-6.035156 2.429687-2.429688 4.453124-5.15625 6.046874-8.09375l22.238282 22.238281c1.871094 1.871094 2.902344 4.382812 2.902344 7.070312zm-40.9375-45.960937c0 4.003906-1.558594 7.769531-4.390626 10.605469-5.851562 5.847656-15.367187 5.847656-21.214843 0-2.832031-2.835938-4.394531-6.601563-4.394531-10.605469 0-4.007813 1.5625-7.773437 4.394531-10.609375 2.925781-2.921875 6.765625-4.386719 10.605469-4.386719 3.839843 0 7.683593 1.464844 10.605468 4.386719 2.835938 2.832031 4.394532 6.601562 4.394532 10.609375zm0 0"/><path d="m400 491.996094h-.007812c-5.519532 0-9.996094 4.480468-9.996094 10 0 5.523437 4.480468 10 10.003906 10s10-4.476563 10-10c0-5.519532-4.476562-10-10-10zm0 0"/><path d="m205.003906 232c5.523438 0 10-4.476562 10-10s-4.476562-10-10-10h-.007812c-5.523438 0-9.996094 4.476562-9.996094 10s4.480469 10 10.003906 10zm0 0"/></svg>